<?xml version="1.0" encoding="UTF-8" standalone="no"?>
<!-- Created with Inkscape (http://www.inkscape.org/) -->

<svg
   width="437.461"
   height="437.035"
   viewBox="0 0 437.46099 437.035"
   version="1.1"
   id="svg1"
   xml:space="preserve"
   xmlns:xlink="http://www.w3.org/1999/xlink"
   xmlns="http://www.w3.org/2000/svg"
   xmlns:svg="http://www.w3.org/2000/svg"><defs
     id="defs1"><linearGradient
       id="linearGradient39"><stop
         style="stop-color:#16a34a;stop-opacity:1;"
         offset="0"
         id="stop39" /><stop
         style="stop-color:#f97316;stop-opacity:1;"
         offset="1"
         id="stop40" /></linearGradient><linearGradient
       xlink:href="#linearGradient39"
       id="linearGradient40"
       x1="37.693253"
       y1="220.50552"
       x2="453.57544"
       y2="220.50552"
       gradientUnits="userSpaceOnUse"
       gradientTransform="translate(-5.0257668,-1.8846625)" /></defs><g
     id="layer1"
     transform="translate(-5.6539876,-47.116563)"><path
       id="rect19"
       style="fill:#16a34a;fill-opacity:1;stroke-width:1.16786"
       d="m 140.56589,337.25453 75.23188,75.79754 0.92652,2.27753 -0.61633,69.02868 H 133.18282 V 340.29652 a 4.3182166,4.3182166 157.6073 0 1 7.38307,-3.04199 z"
       transform="matrix(1.0311332,0,0,0.95766135,-24.169532,20.622351)" /><path
       style="fill:#16a34a;fill-opacity:1;stroke-width:1.39603"
       id="rect20"
       width="96.117805"
       height="192.23555"
       x="234.32639"
       y="292.23801"
       d="m 330.44419,292.23801 v 192.23555 h -96.1178 v -68.47604 z"
       transform="matrix(1.0311332,0,0,0.96405228,-24.393682,17.415719)" /><path
       style="fill:#f97314;fill-opacity:1;stroke-width:1.56178"
       id="rect21"
       width="76.014725"
       height="305.31537"
       x="348.6626"
       y="177.15826"
       d="m 424.67732,177.15826 v 290.74065 a 14.574725,14.574725 135 0 1 -14.57472,14.57472 h -61.44 V 271.39145 Z"
       transform="matrix(1.0311332,0,0,1,-19.253327,1.9999229)" /><path
       id="rect15"
       style="fill:#16a34a;fill-opacity:1;stroke-width:1.05391"
       d="m 95.233645,354.58029 0.528857,129.94303 c 0,0 -56.316239,-0.68859 -67.897917,-0.68859 -7.536264,0 -13.689984,-6.3387 -13.603367,-14.21121 0,0 1.174479,-41.10307 0.64778,-54.13799 64.487645,-51.84808 80.287608,-70.00689 80.324647,-60.90524 z" /><path
       style="fill:url(#linearGradient40)"
       d="m 38.834773,305.18415 85.096147,-62.87358 a 7.43785,7.43785 2.5995436 0 1 9.36374,0.42513 L 219.87731,319.76441 376.3043,115.59263 347.67129,97.697007 a 4.0737947,4.0737947 94.187997 0 1 0.52626,-7.186808 L 451.69079,45.2319 434.57072,150.3137 a 3.9343173,3.9343173 159.31136 0 1 -6.37872,2.40888 l -19.22022,-15.77044 -185.08431,249.2718 a 2.2041571,2.2041571 175.32425 0 1 -3.30233,0.27009 l -94.94096,-91.85846 -94.861358,74.13006 -0.509631,-46.37631 a 21.103615,21.103615 116.45571 0 1 8.561582,-17.20517 z"
       id="path39"
       transform="matrix(1.0311332,0,0,1,-23.957768,1.8846626)" /><path
       style="fill:#16a34a;fill-opacity:1;stroke-width:1.01544"
       d="M -19.423312,484.35827 H 500.74355 498.80021"
       id="path62" /></g></svg>
